<svg width="286" height="125" viewBox="0 0 286 125" fill="none" xmlns="http://www.w3.org/2000/svg">
<path d="M202.396 7.37481C202.881 7.41885 203.367 7.46 203.852 7.50069C204.163 7.52774 204.474 7.55482 204.784 7.58195C204.927 7.59341 205.069 7.60488 205.216 7.61669C205.348 7.62855 205.48 7.64041 205.616 7.65263C205.731 7.66237 205.846 7.6721 205.964 7.68213C206.333 7.75167 206.614 7.88798 206.941 8.06918C206.828 8.15041 206.715 8.23164 206.599 8.31534C201.066 12.3761 197.887 17.5617 195.164 23.7732C192.059 30.842 192.059 30.842 189.843 33.9598C189.745 34.1013 189.647 34.2427 189.546 34.3885C188.892 35.3127 188.194 36.1663 187.426 36.9977C187.106 37.3453 186.8 37.7006 186.495 38.0612C185.041 39.7167 179.666 43.4041 177.468 43.7298C176.735 43.1599 180.224 42.4632 179.88 42.6918C179.107 43.1992 178.396 43.4041 177.468 43.4041C177.468 43.5116 177.468 43.6191 177.468 43.7298C175.955 44.2327 174.493 44.6546 172.909 44.8697C172.695 44.9111 172.695 44.9111 172.477 44.9534C171.847 45.0448 171.23 45.0559 170.595 45.0541C170.408 45.0543 170.408 45.0543 170.217 45.0546C169.955 45.0547 169.694 45.0544 169.432 45.0537C169.03 45.0528 168.627 45.0537 168.225 45.0548C167.97 45.0546 167.715 45.0544 167.461 45.0541C167.279 45.0546 167.279 45.0546 167.095 45.0551C166.251 45.0512 160.063 43.9114 159.882 43.7298C159.541 43.6979 173.739 44.8223 173.397 44.7963C171.597 44.6573 161.6 44.2735 159.882 43.7298C160.158 42.7566 160.625 41.8935 161.093 41.0023C161.18 40.8362 161.267 40.67 161.357 40.4987C164.556 34.4673 168.738 29.1761 173.54 24.3526C173.652 24.2396 173.764 24.1266 173.88 24.0102C177.285 20.6157 181.309 17.8503 185.61 15.7224C185.827 15.6139 186.044 15.5053 186.261 15.3967C180.491 17.4766 175.187 20.2503 170.466 24.1897C170.312 24.3138 170.158 24.4378 169.999 24.5657C168.643 25.6767 167.4 26.8997 166.161 28.1385C166.076 28.223 165.992 28.3076 165.904 28.3947C164.948 29.3518 164.011 30.3186 163.139 31.3544C163.017 31.4974 162.895 31.6403 162.77 31.7876C161.336 33.5229 160.016 35.3358 158.799 37.229C158.444 37.7738 158.081 38.242 157.602 38.682C154.899 34.0801 153.175 28.7672 154.427 23.3756C155.669 18.6404 159.178 14.9222 163.301 12.4555C168.992 9.15756 175.347 7.79656 181.826 7.14532C182.265 7.10102 182.703 7.05222 183.142 7.00058C189.514 6.29209 196.039 6.78627 202.396 7.37481Z" fill="#086A35"/>
<path d="M145.226 24.5155C145.443 24.5825 145.443 24.5825 145.663 24.6509C148.996 25.762 152.033 28.3917 153.684 31.4898C154.9 33.983 156.332 37.0814 155.403 39.8727C155.283 40.17 155.283 40.17 155.159 40.4732C154.593 40.2268 154.197 39.8939 153.745 39.4758C153.6 39.344 153.456 39.2122 153.307 39.0764C153.048 38.8379 152.791 38.5989 152.533 38.3589C146.503 32.8311 138.632 30.2844 130.571 30.0518C130.826 30.0905 130.826 30.0905 131.085 30.13C138.129 31.2528 144.583 34.8729 149.786 39.659C150.016 39.8634 150.246 40.067 150.478 40.2696C150.635 40.4072 150.635 40.4072 150.795 40.5476C151.054 40.7696 151.32 40.9833 151.587 41.1958C152.074 41.6206 152.482 42.067 152.899 42.5589C153.117 42.8129 153.34 43.0622 153.567 43.3081C153.686 43.4372 153.805 43.5663 153.928 43.6993C154.038 43.8179 154.149 43.9365 154.263 44.0587C154.508 44.3812 154.508 44.3812 154.508 44.8697C150.83 47.9327 145.118 48.7783 140.53 48.4005C134.415 47.6362 129.624 44.0521 125.891 39.2958C122.293 34.8748 118.33 32.2954 112.823 30.866C113.268 30.3421 113.842 30.0523 114.441 29.7363C114.559 29.674 114.677 29.6117 114.798 29.5475C118.283 27.7529 121.999 26.2527 125.794 25.2667C126.175 25.1667 126.555 25.0627 126.936 24.9582C132.732 23.4003 139.422 22.6298 145.226 24.5155Z" fill="#ADCB1D"/>
<path d="M40.2511 91.1233C38.3299 91.1233 36.5689 90.892 34.9679 90.4295C33.3669 89.967 32.015 89.469 30.9121 88.9353C29.8092 88.3661 29.0087 87.9747 28.5106 87.7613C28.0481 88.117 27.639 88.4372 27.2832 88.7218C26.963 89.0065 26.5539 89.3978 26.0558 89.8959C25.7 90.2517 25.362 90.3584 25.0419 90.2161C24.7217 90.0382 24.5616 89.7536 24.5616 89.3622V78.9559C24.5616 78.529 24.7928 78.2799 25.2553 78.2088C25.7534 78.1376 26.0558 78.2621 26.1625 78.5823C26.8385 80.5747 27.8702 82.3535 29.2577 83.9189C30.6453 85.4843 32.2996 86.7117 34.2208 87.6012C36.1775 88.455 38.2766 88.8819 40.5179 88.8819C42.3679 88.8819 43.8622 88.5084 45.0007 87.7613C46.1747 87.0141 47.0463 86.0713 47.6156 84.9329C48.1848 83.7588 48.4694 82.6026 48.4694 81.4641C48.4694 79.9343 48.0425 78.7069 47.1887 77.7819C46.3348 76.8213 45.2141 76.0564 43.8266 75.4871C42.4391 74.8823 40.8915 74.3664 39.1838 73.9395C37.5117 73.5126 35.8395 73.0501 34.1674 72.552C32.4953 72.0539 30.9655 71.4135 29.5779 70.6308C28.1904 69.8126 27.0698 68.7452 26.2159 67.4289C25.362 66.077 24.9351 64.3692 24.9351 62.3058C24.9351 59.8509 25.5221 57.8053 26.6962 56.1687C27.9058 54.4966 29.5068 53.2336 31.4991 52.3797C33.4914 51.5259 35.6439 51.099 37.9564 51.099C39.4506 51.099 40.8737 51.2768 42.2256 51.6326C43.6131 51.9884 44.8583 52.4153 45.9612 52.9134C47.0641 53.3759 47.918 53.8028 48.5228 54.1942C48.9497 53.8028 49.3055 53.4826 49.5901 53.2336C49.9103 52.949 50.1594 52.7355 50.3372 52.5932C50.693 52.3086 51.0132 52.2552 51.2978 52.4331C51.5824 52.5754 51.7247 52.8778 51.7247 53.3403V62.4659C51.7247 62.9284 51.4935 63.213 51.031 63.3197C50.6041 63.4265 50.3017 63.2486 50.1238 62.7861C49.3411 61.0428 48.3449 59.424 47.1353 57.9298C45.9612 56.4355 44.5915 55.2259 43.0261 54.3009C41.4963 53.3759 39.8064 52.9134 37.9564 52.9134C36.4266 52.9134 35.0746 53.2514 33.9006 53.9273C32.7265 54.5677 31.8015 55.4216 31.1256 56.4889C30.4496 57.5562 30.1116 58.7481 30.1116 60.0644C30.1116 61.5587 30.5385 62.7505 31.3924 63.6399C32.2818 64.5293 33.4381 65.2409 34.8612 65.7745C36.2842 66.3082 37.8496 66.7707 39.5573 67.1621C41.3006 67.5534 43.0261 67.9981 44.7338 68.4962C46.4415 68.9587 48.0069 69.5991 49.43 70.4174C50.8531 71.2356 51.9916 72.3385 52.8454 73.7261C53.7349 75.078 54.1796 76.8568 54.1796 79.0626C54.1796 81.5886 53.5748 83.7588 52.3651 85.5733C51.1555 87.3877 49.5012 88.7752 47.4021 89.7358C45.3031 90.6608 42.9194 91.1233 40.2511 91.1233ZM58.96 90.4829C58.4263 90.4829 58.1595 90.2339 58.1595 89.7358C58.1595 89.2021 58.4263 88.9353 58.96 88.9353C60.4542 88.9353 61.5571 88.8464 62.2687 88.6685C62.9802 88.4906 63.4427 88.1704 63.6562 87.7079C63.9052 87.2098 64.0297 86.5338 64.0297 85.68V56.4355C64.0297 55.6528 63.923 55.0302 63.7095 54.5677C63.5317 54.1052 63.0691 53.785 62.322 53.6071C61.6105 53.3937 60.4542 53.287 58.8532 53.287C58.6754 53.287 58.5153 53.2158 58.373 53.0735C58.2306 52.8956 58.1595 52.7177 58.1595 52.5398C58.1595 52.0062 58.3907 51.7393 58.8532 51.7393C59.1734 51.7393 60.0629 51.7749 61.5215 51.8461C62.9802 51.8817 64.9014 51.8994 67.285 51.8994C70.238 51.8994 72.7639 51.8817 74.863 51.8461C76.9976 51.7749 78.7053 51.7393 79.9861 51.7393C84.0419 51.7393 87.1905 52.6644 89.4318 54.5144C91.6732 56.3644 92.7939 58.9793 92.7939 62.3591C92.7939 65.6678 91.8511 68.2472 89.9655 70.0972C88.1155 71.9116 85.0559 72.8188 80.7866 72.8188H70.5404V85.68C70.5404 86.9608 70.9317 87.8324 71.7144 88.2949C72.4971 88.7218 74.0625 88.9353 76.4106 88.9353C76.8731 88.9353 77.1044 89.2021 77.1044 89.7358C77.1044 90.2339 76.8731 90.4829 76.4106 90.4829C76.0548 90.4829 75.0587 90.4651 73.4221 90.4295C71.8211 90.3584 69.7754 90.3228 67.285 90.3228C64.9014 90.3228 62.998 90.3584 61.5749 90.4295C60.1874 90.4651 59.3158 90.4829 58.96 90.4829ZM70.5404 71.0578H78.1717C80.4842 71.0578 82.2808 70.2573 83.5616 68.6563C84.8424 67.0553 85.4828 64.9563 85.4828 62.3591C85.4828 60.7226 85.2337 59.2283 84.7357 57.8764C84.2732 56.5245 83.4371 55.4394 82.2275 54.6211C81.0534 53.8028 79.3991 53.3937 77.2644 53.3937H70.5404V71.0578ZM124.711 90.9098C123.323 90.9098 122.185 90.5719 121.295 89.8959C120.442 89.1843 119.73 88.2593 119.161 87.1209C118.627 85.9824 118.182 84.7372 117.827 83.3853C117.471 82.0333 117.133 80.6814 116.813 79.3295C116.528 77.9775 116.172 76.7323 115.745 75.5939C115.318 74.4554 114.749 73.5482 114.038 72.8722C113.362 72.1607 112.454 71.8049 111.316 71.8049H106.46V85.68C106.46 86.3915 106.549 86.9963 106.727 87.4944C106.94 87.9925 107.367 88.3661 108.007 88.6151C108.648 88.8286 109.626 88.9353 110.942 88.9353C111.405 88.9353 111.636 89.2021 111.636 89.7358C111.636 89.9137 111.565 90.0916 111.423 90.2694C111.316 90.4118 111.156 90.4829 110.942 90.4829C110.587 90.4829 109.697 90.4651 108.274 90.4295C106.887 90.3584 105.215 90.3228 103.258 90.3228C101.408 90.3228 99.8068 90.3584 98.4548 90.4295C97.1385 90.4651 96.2846 90.4829 95.8933 90.4829C95.4308 90.4829 95.1995 90.2339 95.1995 89.7358C95.1995 89.2021 95.4308 88.9353 95.8933 88.9353C97.2096 88.9353 98.1524 88.8108 98.7217 88.5617C99.2909 88.3127 99.6467 87.9569 99.789 87.4944C99.9313 86.9963 100.002 86.3915 100.002 85.68V56.4355C100.002 55.7951 99.9135 55.2437 99.7356 54.7812C99.5933 54.3187 99.2375 53.9629 98.6683 53.7139C98.1346 53.4293 97.2452 53.287 96 53.287C95.751 53.287 95.5553 53.2158 95.413 53.0735C95.3063 52.8956 95.2529 52.7177 95.2529 52.5398C95.2529 52.0062 95.5019 51.7393 96 51.7393C96.2491 51.7393 97.0495 51.7749 98.4015 51.8461C99.789 51.8817 101.408 51.8994 103.258 51.8994C106.211 51.8994 108.665 51.8817 110.622 51.8461C112.579 51.7749 114.198 51.7393 115.479 51.7393C117.649 51.7393 119.623 52.0773 121.402 52.7533C123.217 53.3937 124.675 54.4254 125.778 55.8485C126.881 57.2716 127.432 59.1394 127.432 61.4519C127.432 63.2664 127.006 64.7784 126.152 65.988C125.333 67.1621 124.302 68.0871 123.056 68.763C121.847 69.439 120.637 69.9549 119.428 70.3106C118.218 70.6664 117.222 70.9332 116.439 71.1111C118.04 71.3246 119.321 71.876 120.281 72.7655C121.278 73.6193 122.06 74.6688 122.63 75.914C123.199 77.1237 123.643 78.4045 123.964 79.7564C124.319 81.0727 124.64 82.3002 124.924 83.4386C125.209 84.5771 125.565 85.5199 125.992 86.267C126.454 86.9786 127.077 87.3343 127.859 87.3343C128.18 87.3343 128.5 87.2632 128.82 87.1209C129.14 86.943 129.478 86.6584 129.834 86.267C130.012 86.0535 130.172 85.9112 130.314 85.8401C130.457 85.7689 130.634 85.8223 130.848 86.0002C131.026 86.1425 131.097 86.3026 131.061 86.4805C131.061 86.6584 131.008 86.8718 130.901 87.1209C130.545 87.9036 129.816 88.7396 128.713 89.6291C127.646 90.4829 126.312 90.9098 124.711 90.9098ZM106.46 70.0438H112.17C114.803 70.0438 116.813 69.3323 118.2 67.9092C119.588 66.4861 120.281 64.3337 120.281 61.4519C120.281 59.0682 119.694 57.1293 118.52 55.635C117.382 54.1408 115.639 53.3937 113.291 53.3937H106.46V70.0438ZM151.667 91.1233C148.75 91.1233 146.188 90.7497 143.983 90.0026C141.777 89.2555 140.051 88.0459 138.806 86.3737C137.596 84.7016 136.992 82.5136 136.992 79.8098V56.3822C136.992 55.4927 136.778 54.7456 136.351 54.1408C135.96 53.536 134.928 53.2336 133.256 53.2336C132.758 53.2336 132.509 52.9668 132.509 52.4331C132.509 51.9706 132.758 51.7393 133.256 51.7393C133.541 51.7393 134.145 51.7571 135.07 51.7927C136.031 51.7927 137.454 51.7927 139.34 51.7927C140.62 51.7927 141.848 51.7927 143.022 51.7927C144.196 51.7571 145.192 51.7393 146.01 51.7393C146.829 51.7393 147.327 51.7393 147.505 51.7393C147.967 51.7393 148.198 51.9706 148.198 52.4331C148.198 52.9668 147.967 53.2336 147.505 53.2336C145.761 53.2336 144.641 53.5538 144.143 54.1942C143.68 54.799 143.449 55.5283 143.449 56.3822V78.102C143.449 80.1299 143.662 81.9088 144.089 83.4386C144.552 84.9329 145.406 86.1069 146.651 86.9608C147.932 87.8146 149.764 88.2415 152.147 88.2415C154.353 88.2415 156.15 87.8858 157.537 87.1742C158.961 86.4627 160.063 85.5021 160.846 84.2925C161.629 83.0829 162.162 81.7131 162.447 80.1833C162.767 78.6179 162.927 76.9814 162.927 75.2737V60.1178C162.927 58.8014 162.785 57.6274 162.5 56.5956C162.216 55.5639 161.7 54.7456 160.953 54.1408C160.241 53.536 159.174 53.2336 157.751 53.2336C157.217 53.2336 156.95 52.9668 156.95 52.4331C156.95 51.9706 157.217 51.7393 157.751 51.7393C158.071 51.7393 158.783 51.7571 159.886 51.7927C161.024 51.7927 162.412 51.7927 164.048 51.7927C165.507 51.7927 166.77 51.7927 167.837 51.7927C168.94 51.7571 169.669 51.7393 170.025 51.7393C170.559 51.7393 170.826 51.9706 170.826 52.4331C170.826 52.9668 170.559 53.2336 170.025 53.2336C169.1 53.2336 168.246 53.447 167.463 53.874C166.716 54.2653 166.112 54.9591 165.649 55.9552C165.187 56.9514 164.955 58.3567 164.955 60.1711V76.4477C164.955 79.3295 164.528 81.8732 163.675 84.079C162.821 86.2848 161.415 88.0103 159.459 89.2555C157.537 90.5007 154.94 91.1233 151.667 91.1233ZM193.443 91.1233C189.849 91.1233 186.665 90.394 183.89 88.9353C181.151 87.4411 178.998 85.2175 177.433 82.2646C175.903 79.3117 175.138 75.6294 175.138 71.2179C175.138 66.913 175.956 63.2664 177.593 60.2779C179.265 57.2894 181.489 55.0124 184.264 53.4471C187.039 51.8817 190.098 51.099 193.443 51.099C194.759 51.099 195.969 51.2946 197.071 51.686C198.174 52.0418 199.135 52.4509 199.953 52.9134C200.772 53.3759 201.412 53.8028 201.874 54.1942C202.372 54.5499 202.657 54.7278 202.728 54.7278C203.297 54.2653 203.796 53.8384 204.222 53.4471C204.649 53.0557 204.987 52.7711 205.236 52.5932C205.557 52.3086 205.912 52.2374 206.304 52.3797C206.695 52.522 206.891 52.8067 206.891 53.2336V63.2664C206.891 63.6933 206.642 63.9601 206.144 64.0668C205.646 64.1736 205.308 64.0491 205.13 63.6933C204.454 61.9856 203.582 60.3134 202.515 58.6769C201.447 57.0048 200.167 55.635 198.672 54.5677C197.178 53.4648 195.435 52.9134 193.443 52.9134C191.699 52.9134 189.992 53.5538 188.319 54.8346C186.683 56.0798 185.313 58.0543 184.21 60.7582C183.143 63.4265 182.609 66.913 182.609 71.2179C182.609 74.4554 182.93 77.1948 183.57 79.4362C184.21 81.6776 185.064 83.4742 186.131 84.8261C187.199 86.1781 188.391 87.1564 189.707 87.7613C191.059 88.3661 192.429 88.6685 193.816 88.6685C197.089 88.6685 199.758 87.9214 201.821 86.4271C203.92 84.8973 205.681 82.6203 207.104 79.5963C207.282 79.2761 207.513 79.0626 207.798 78.9559C208.083 78.8136 208.349 78.8314 208.598 79.0093C208.848 79.1516 209.025 79.3472 209.132 79.5963C209.274 79.8453 209.292 80.1122 209.186 80.3968C207.94 83.6343 206.019 86.2314 203.422 88.1882C200.86 90.1449 197.534 91.1233 193.443 91.1233ZM212.904 90.4829C212.442 90.4829 212.21 90.1983 212.21 89.6291C212.21 89.1666 212.442 88.9353 212.904 88.9353C214.896 88.9353 216.231 88.6863 216.906 88.1882C217.618 87.6901 217.974 86.854 217.974 85.68V56.4355C217.974 55.3682 217.654 54.5677 217.013 54.0341C216.373 53.5004 215.092 53.2336 213.171 53.2336C212.708 53.2336 212.477 52.9668 212.477 52.4331C212.477 51.9706 212.708 51.7393 213.171 51.7393C213.455 51.7393 214.807 51.7571 217.227 51.7927C219.681 51.8283 223.275 51.8461 228.007 51.8461C232.489 51.8461 235.887 51.8283 238.199 51.7927C240.512 51.7571 241.828 51.7393 242.148 51.7393C242.967 51.7393 243.394 52.1485 243.429 52.9668C243.5 53.287 243.554 53.8206 243.589 54.5677C243.625 55.2793 243.661 56.0442 243.696 56.8625C243.732 57.6807 243.749 58.4101 243.749 59.0505C243.785 59.6908 243.803 60.1 243.803 60.2779C243.803 60.4202 243.767 60.5803 243.696 60.7582C243.625 60.9005 243.465 60.9716 243.216 60.9716C242.967 60.9716 242.771 60.9538 242.629 60.9183C242.522 60.8471 242.415 60.687 242.309 60.438C241.882 59.4774 241.33 58.4634 240.654 57.3961C240.014 56.2932 239.142 55.3504 238.039 54.5677C236.972 53.785 235.567 53.3937 233.823 53.3937H224.431V69.8303H227.846C229.341 69.8303 230.479 69.5102 231.262 68.8698C232.045 68.2294 232.614 67.4823 232.97 66.6284C233.361 65.7745 233.681 65.0452 233.93 64.4404C234.037 64.1558 234.126 63.9601 234.197 63.8534C234.304 63.7111 234.499 63.6399 234.784 63.6399C235.033 63.6399 235.193 63.7289 235.264 63.9067C235.371 64.0846 235.424 64.2625 235.424 64.4404C235.424 64.725 235.407 65.2409 235.371 65.988C235.371 66.6996 235.353 67.4823 235.318 68.3361C235.318 69.19 235.318 69.9727 235.318 70.6842C235.318 71.3602 235.318 72.1784 235.318 73.139C235.353 74.064 235.371 74.9179 235.371 75.7006C235.407 76.4477 235.424 76.9458 235.424 77.1948C235.424 77.7285 235.211 77.9953 234.784 77.9953C234.393 77.9953 234.126 77.7641 233.984 77.3016C233.734 76.6256 233.414 75.8429 233.023 74.9535C232.632 74.0285 232.045 73.228 231.262 72.552C230.479 71.8405 229.341 71.4847 227.846 71.4847H224.431V87.7079C224.431 88.3839 224.787 88.7218 225.498 88.7218H232.703C234.41 88.7218 235.851 88.4194 237.025 87.8146C238.199 87.1742 239.16 86.3915 239.907 85.4665C240.69 84.5059 241.295 83.5631 241.722 82.6381C242.148 81.6776 242.469 80.8771 242.682 80.2367C242.789 79.9165 242.896 79.7386 243.002 79.703C243.145 79.6674 243.34 79.6674 243.589 79.703C243.625 79.703 243.643 79.703 243.643 79.703C243.927 79.7386 244.087 79.8275 244.123 79.9698C244.159 80.1122 244.176 80.2723 244.176 80.4501C244.176 80.5924 244.159 81.0372 244.123 81.7843C244.123 82.5314 244.105 83.403 244.07 84.3992C244.07 85.3598 244.052 86.267 244.016 87.1209C244.016 87.9391 244.016 88.5084 244.016 88.8286C244.016 89.2911 243.874 89.6824 243.589 90.0026C243.34 90.3228 242.967 90.4829 242.469 90.4829C242.22 90.4829 241.668 90.4651 240.814 90.4295C239.96 90.394 238.555 90.3762 236.598 90.3762C234.642 90.3406 231.902 90.3228 228.38 90.3228C224.04 90.3228 220.464 90.3584 217.654 90.4295C214.879 90.4651 213.295 90.4829 212.904 90.4829Z" fill="#196E3E"/>
<path d="M159.931 112.096C159.75 112.096 159.66 112.012 159.66 111.844C159.66 111.637 159.75 111.533 159.931 111.533C160.63 111.533 161.109 111.449 161.368 111.281C161.626 111.113 161.756 110.809 161.756 110.369V99.6763C161.756 99.3011 161.652 99.0229 161.445 98.8418C161.251 98.6478 160.798 98.5507 160.087 98.5507C159.919 98.5507 159.834 98.4472 159.834 98.2402C159.834 98.0721 159.919 97.988 160.087 97.988C160.203 97.988 160.533 97.9944 161.076 98.0074C161.62 98.0203 162.241 98.0268 162.939 98.0268C163.405 98.0268 163.845 98.0268 164.259 98.0268C164.673 98.0138 165.022 98.0074 165.307 98.0074C165.604 97.9944 165.786 97.988 165.85 97.988C166.031 97.988 166.122 98.0721 166.122 98.2402C166.122 98.4472 166.031 98.5507 165.85 98.5507C165.139 98.5507 164.666 98.6478 164.434 98.8418C164.214 99.0229 164.104 99.3011 164.104 99.6763V111.106C164.104 111.365 164.24 111.494 164.511 111.494H167.519C168.153 111.494 168.709 111.313 169.188 110.951C169.68 110.589 170.094 110.142 170.43 109.612C170.779 109.069 171.051 108.538 171.245 108.021C171.284 107.917 171.336 107.853 171.4 107.827C171.465 107.788 171.523 107.775 171.575 107.788C171.678 107.801 171.743 107.84 171.769 107.904C171.795 107.956 171.808 108.014 171.808 108.079C171.808 108.118 171.808 108.279 171.808 108.564C171.808 108.849 171.801 109.192 171.788 109.593C171.788 109.981 171.782 110.356 171.769 110.718C171.769 111.08 171.763 111.352 171.75 111.533C171.737 111.701 171.685 111.837 171.594 111.941C171.504 112.044 171.368 112.096 171.187 112.096C171.096 112.096 170.857 112.096 170.469 112.096C170.081 112.083 169.499 112.077 168.722 112.077C167.946 112.077 166.918 112.077 165.637 112.077C164.576 112.077 163.632 112.077 162.804 112.077C161.976 112.077 161.309 112.083 160.805 112.096C160.313 112.096 160.022 112.096 159.931 112.096ZM173.275 112.096C173.068 112.096 172.964 111.992 172.964 111.785C172.964 111.566 173.068 111.456 173.275 111.456C173.766 111.456 174.096 111.352 174.264 111.145C174.433 110.938 174.517 110.602 174.517 110.136V104.625C174.517 104.262 174.478 104.023 174.4 103.907C174.336 103.777 174.213 103.706 174.032 103.693C173.941 103.68 173.786 103.667 173.566 103.654C173.359 103.629 173.21 103.609 173.119 103.596C172.938 103.557 172.848 103.447 172.848 103.266C172.848 103.059 172.945 102.956 173.139 102.956C173.178 102.956 173.339 102.956 173.624 102.956C173.909 102.943 174.226 102.936 174.575 102.936C174.937 102.936 175.267 102.936 175.565 102.936C175.862 102.924 176.05 102.917 176.127 102.917C176.451 102.917 176.613 103.066 176.613 103.363V110.136C176.613 110.602 176.69 110.938 176.845 111.145C177.001 111.352 177.285 111.456 177.699 111.456C177.893 111.456 177.99 111.566 177.99 111.785C177.99 111.992 177.893 112.096 177.699 112.096C177.609 112.096 177.434 112.089 177.175 112.077C176.917 112.064 176.638 112.057 176.341 112.057C176.043 112.044 175.778 112.038 175.545 112.038C175.325 112.038 175.054 112.044 174.73 112.057C174.407 112.057 174.103 112.064 173.818 112.077C173.546 112.089 173.365 112.096 173.275 112.096ZM175.409 100.802C175.021 100.802 174.691 100.666 174.42 100.394C174.148 100.123 174.012 99.7927 174.012 99.4046C174.012 99.0165 174.148 98.6866 174.42 98.4149C174.691 98.1432 175.021 98.0074 175.409 98.0074C175.797 98.0074 176.127 98.1432 176.399 98.4149C176.671 98.6866 176.807 99.0165 176.807 99.4046C176.807 99.7927 176.671 100.123 176.399 100.394C176.127 100.666 175.797 100.802 175.409 100.802ZM179.508 112.096C179.301 112.096 179.197 111.986 179.197 111.766C179.197 111.559 179.301 111.456 179.508 111.456C180.051 111.456 180.446 111.359 180.692 111.164C180.937 110.97 181.06 110.641 181.06 110.175V103.829C181.06 103.726 181.002 103.674 180.886 103.674H179.469C179.262 103.674 179.158 103.57 179.158 103.363V103.208C179.158 103.014 179.262 102.917 179.469 102.917H180.886C181.002 102.917 181.06 102.859 181.06 102.742V102.083C181.06 101.086 181.222 100.271 181.545 99.6375C181.869 99.0035 182.27 98.5378 182.749 98.2402C183.24 97.9298 183.738 97.7745 184.243 97.7745C184.89 97.7745 185.452 97.9298 185.931 98.2402C186.423 98.5378 186.668 98.9712 186.668 99.5404C186.668 99.9156 186.559 100.213 186.339 100.433C186.119 100.653 185.802 100.763 185.388 100.763C185.064 100.763 184.799 100.666 184.592 100.472C184.398 100.265 184.34 99.9221 184.417 99.4434C184.456 99.1976 184.417 98.9971 184.301 98.8418C184.197 98.6866 184.036 98.6348 183.816 98.6866C183.609 98.7383 183.441 98.9518 183.311 99.327C183.195 99.7021 183.137 100.349 183.137 101.268V102.742C183.137 102.859 183.195 102.917 183.311 102.917H185.465C185.543 102.917 185.608 102.949 185.659 103.014C185.724 103.066 185.756 103.13 185.756 103.208V103.363C185.756 103.57 185.659 103.674 185.465 103.674H183.311C183.195 103.674 183.137 103.726 183.137 103.829V110.175C183.137 110.641 183.266 110.97 183.525 111.164C183.796 111.359 184.282 111.456 184.98 111.456C185.174 111.456 185.271 111.559 185.271 111.766C185.271 111.986 185.174 112.096 184.98 112.096C184.89 112.096 184.676 112.089 184.34 112.077C184.016 112.064 183.648 112.057 183.234 112.057C182.833 112.044 182.451 112.038 182.089 112.038C181.778 112.038 181.435 112.044 181.06 112.057C180.698 112.057 180.368 112.064 180.071 112.077C179.786 112.089 179.598 112.096 179.508 112.096ZM191.592 112.329C190.117 112.329 188.959 111.928 188.118 111.126C187.29 110.324 186.876 109.172 186.876 107.671C186.876 106.727 187.064 105.88 187.439 105.129C187.814 104.379 188.344 103.784 189.03 103.344C189.729 102.904 190.537 102.684 191.456 102.684C192.154 102.684 192.762 102.82 193.28 103.092C193.797 103.363 194.224 103.719 194.561 104.159C194.897 104.599 195.149 105.078 195.318 105.595C195.486 106.1 195.57 106.598 195.57 107.089C195.57 107.296 195.44 107.4 195.182 107.4H189.438C189.256 107.4 189.166 107.503 189.166 107.71C189.166 108.616 189.269 109.321 189.476 109.825C189.683 110.33 189.981 110.686 190.369 110.893C190.77 111.1 191.242 111.203 191.786 111.203C192.445 111.203 193.034 111.061 193.552 110.776C194.082 110.492 194.515 110.136 194.852 109.709C194.994 109.541 195.156 109.515 195.337 109.631C195.518 109.748 195.544 109.903 195.415 110.097C195.156 110.485 194.858 110.848 194.522 111.184C194.198 111.52 193.797 111.798 193.319 112.018C192.853 112.225 192.277 112.329 191.592 112.329ZM189.573 106.643H192.853C193.112 106.643 193.241 106.52 193.241 106.274C193.241 105.433 193.105 104.741 192.834 104.198C192.575 103.654 192.103 103.383 191.417 103.383C190.835 103.383 190.369 103.648 190.02 104.178C189.683 104.696 189.431 105.407 189.263 106.313C189.224 106.533 189.328 106.643 189.573 106.643ZM201.689 112.329C201.223 112.329 200.751 112.258 200.272 112.115C199.794 111.986 199.392 111.857 199.069 111.727C198.914 111.663 198.772 111.637 198.642 111.65C198.526 111.663 198.416 111.701 198.312 111.766C198.235 111.818 198.163 111.876 198.099 111.941C198.047 111.992 197.989 112.051 197.924 112.115C197.795 112.245 197.659 112.284 197.517 112.232C197.387 112.18 197.323 112.064 197.323 111.882V109.185C197.323 109.017 197.394 108.92 197.536 108.894C197.691 108.868 197.808 108.92 197.885 109.049C198.856 110.641 200.136 111.436 201.728 111.436C202.349 111.436 202.873 111.307 203.3 111.048C203.739 110.789 203.959 110.408 203.959 109.903C203.959 109.567 203.804 109.308 203.494 109.127C203.183 108.946 202.782 108.803 202.29 108.7C201.799 108.584 201.281 108.461 200.738 108.331C200.195 108.202 199.677 108.027 199.185 107.807C198.694 107.587 198.293 107.283 197.982 106.895C197.672 106.494 197.517 105.964 197.517 105.304C197.517 104.864 197.633 104.444 197.866 104.043C198.112 103.642 198.48 103.318 198.972 103.072C199.464 102.814 200.085 102.684 200.835 102.684C201.262 102.684 201.682 102.736 202.096 102.839C202.523 102.93 202.892 103.04 203.202 103.169C203.565 103.312 203.823 103.318 203.979 103.189C204.043 103.137 204.108 103.085 204.173 103.033C204.25 102.969 204.322 102.911 204.386 102.859C204.503 102.781 204.606 102.755 204.697 102.781C204.8 102.794 204.852 102.885 204.852 103.053V105.479C204.852 105.647 204.774 105.75 204.619 105.789C204.464 105.815 204.354 105.763 204.289 105.634C203.966 104.871 203.507 104.321 202.911 103.984C202.316 103.648 201.721 103.48 201.126 103.48C200.453 103.48 199.942 103.629 199.593 103.926C199.244 104.211 199.069 104.541 199.069 104.916C199.069 105.226 199.224 105.466 199.535 105.634C199.845 105.789 200.24 105.918 200.719 106.022C201.21 106.113 201.728 106.216 202.271 106.332C202.814 106.436 203.325 106.598 203.804 106.818C204.296 107.038 204.697 107.354 205.007 107.768C205.318 108.17 205.473 108.713 205.473 109.399C205.473 109.942 205.318 110.44 205.007 110.893C204.697 111.333 204.257 111.682 203.688 111.941C203.118 112.199 202.452 112.329 201.689 112.329ZM207.254 112.096C207.047 112.096 206.943 111.986 206.943 111.766C206.943 111.559 207.047 111.456 207.254 111.456C207.681 111.456 207.991 111.365 208.185 111.184C208.392 111.003 208.496 110.712 208.496 110.311V99.7345C208.496 99.3722 208.457 99.1394 208.379 99.0359C208.315 98.9194 208.192 98.8418 208.011 98.803C207.92 98.7771 207.765 98.7577 207.545 98.7448C207.338 98.7189 207.189 98.6995 207.098 98.6866C206.917 98.6607 206.827 98.5572 206.827 98.3761C206.827 98.182 206.924 98.0721 207.118 98.0462C207.157 98.0462 207.318 98.0462 207.603 98.0462C207.888 98.0333 208.205 98.0268 208.554 98.0268C208.916 98.0268 209.246 98.0268 209.544 98.0268C209.841 98.0138 210.029 98.0074 210.106 98.0074C210.43 98.0074 210.592 98.1756 210.592 98.5119V106.934C210.592 106.986 210.611 107.018 210.65 107.031C210.701 107.044 210.753 107.025 210.805 106.973C211.025 106.753 211.277 106.514 211.562 106.255C211.846 105.996 212.125 105.744 212.396 105.498C212.681 105.239 212.914 105.032 213.095 104.877C213.496 104.528 213.651 104.224 213.561 103.965C213.483 103.693 213.289 103.557 212.978 103.557C212.784 103.557 212.687 103.447 212.687 103.228C212.687 103.021 212.784 102.917 212.978 102.917C213.121 102.917 213.373 102.924 213.735 102.936C214.097 102.949 214.447 102.956 214.783 102.956C215.12 102.956 215.462 102.949 215.812 102.936C216.174 102.924 216.426 102.917 216.568 102.917C216.763 102.917 216.86 103.021 216.86 103.228C216.86 103.447 216.763 103.557 216.568 103.557C216.155 103.557 215.728 103.661 215.288 103.868C214.861 104.075 214.363 104.463 213.793 105.032C213.742 105.084 213.684 105.142 213.619 105.207C213.554 105.272 213.438 105.375 213.27 105.517C213.14 105.634 213.121 105.776 213.211 105.944C213.315 106.125 213.457 106.378 213.638 106.701C213.832 107.025 214.046 107.38 214.279 107.768C214.524 108.157 214.757 108.538 214.977 108.913C215.197 109.276 215.391 109.586 215.559 109.845C215.728 110.104 215.838 110.272 215.889 110.349C216.096 110.647 216.29 110.906 216.471 111.126C216.666 111.346 216.892 111.456 217.151 111.456C217.345 111.456 217.442 111.559 217.442 111.766C217.442 111.986 217.345 112.096 217.151 112.096C217.06 112.096 216.892 112.089 216.646 112.077C216.413 112.064 216.161 112.057 215.889 112.057C215.618 112.044 215.365 112.038 215.132 112.038C214.796 112.038 214.466 112.051 214.143 112.077C213.819 112.089 213.586 112.096 213.444 112.096C213.25 112.096 213.153 111.986 213.153 111.766C213.153 111.559 213.25 111.456 213.444 111.456C213.638 111.456 213.761 111.397 213.813 111.281C213.865 111.164 213.839 111.029 213.735 110.873C213.696 110.796 213.612 110.641 213.483 110.408C213.354 110.175 213.198 109.903 213.017 109.593C212.836 109.269 212.655 108.946 212.474 108.622C212.306 108.299 212.15 108.021 212.008 107.788C211.866 107.542 211.762 107.374 211.698 107.283C211.607 107.154 211.517 107.128 211.426 107.206C211.297 107.309 211.174 107.413 211.057 107.516C210.954 107.62 210.857 107.71 210.766 107.788C210.65 107.891 210.592 108.053 210.592 108.273V110.272C210.592 110.75 210.682 111.067 210.863 111.223C211.057 111.378 211.297 111.456 211.581 111.456C211.775 111.456 211.872 111.559 211.872 111.766C211.872 111.986 211.775 112.096 211.581 112.096C211.491 112.096 211.322 112.089 211.077 112.077C210.831 112.064 210.566 112.057 210.281 112.057C210.009 112.044 209.757 112.038 209.524 112.038C209.304 112.038 209.033 112.044 208.709 112.057C208.386 112.057 208.082 112.064 207.797 112.077C207.525 112.089 207.344 112.096 207.254 112.096ZM218.833 112.096C218.626 112.096 218.522 111.992 218.522 111.785C218.522 111.566 218.626 111.456 218.833 111.456C219.324 111.456 219.654 111.352 219.822 111.145C219.991 110.938 220.075 110.602 220.075 110.136V104.625C220.075 104.262 220.036 104.023 219.958 103.907C219.894 103.777 219.771 103.706 219.59 103.693C219.499 103.68 219.344 103.667 219.124 103.654C218.917 103.629 218.768 103.609 218.678 103.596C218.496 103.557 218.406 103.447 218.406 103.266C218.406 103.059 218.503 102.956 218.697 102.956C218.736 102.956 218.897 102.956 219.182 102.956C219.467 102.943 219.784 102.936 220.133 102.936C220.495 102.936 220.825 102.936 221.123 102.936C221.42 102.924 221.608 102.917 221.685 102.917C222.009 102.917 222.171 103.066 222.171 103.363V110.136C222.171 110.602 222.248 110.938 222.403 111.145C222.559 111.352 222.843 111.456 223.257 111.456C223.451 111.456 223.548 111.566 223.548 111.785C223.548 111.992 223.451 112.096 223.257 112.096C223.167 112.096 222.992 112.089 222.733 112.077C222.475 112.064 222.196 112.057 221.899 112.057C221.601 112.044 221.336 112.038 221.103 112.038C220.883 112.038 220.612 112.044 220.288 112.057C219.965 112.057 219.661 112.064 219.376 112.077C219.104 112.089 218.923 112.096 218.833 112.096ZM220.967 100.802C220.579 100.802 220.249 100.666 219.978 100.394C219.706 100.123 219.57 99.7927 219.57 99.4046C219.57 99.0165 219.706 98.6866 219.978 98.4149C220.249 98.1432 220.579 98.0074 220.967 98.0074C221.355 98.0074 221.685 98.1432 221.957 98.4149C222.229 98.6866 222.365 99.0165 222.365 99.4046C222.365 99.7927 222.229 100.123 221.957 100.394C221.685 100.666 221.355 100.802 220.967 100.802ZM225.143 112.096C224.936 112.096 224.833 111.986 224.833 111.766C224.833 111.559 224.936 111.456 225.143 111.456C225.635 111.456 225.965 111.359 226.133 111.164C226.301 110.97 226.385 110.641 226.385 110.175V99.7345C226.385 99.3722 226.34 99.1394 226.25 99.0359C226.159 98.9194 226.023 98.8418 225.842 98.803C225.751 98.7771 225.609 98.7577 225.415 98.7448C225.221 98.7189 225.079 98.6995 224.988 98.6866C224.807 98.6607 224.716 98.5572 224.716 98.3761C224.716 98.182 224.814 98.0721 225.008 98.0462C225.046 98.0462 225.208 98.0462 225.493 98.0462C225.777 98.0333 226.094 98.0268 226.444 98.0268C226.806 98.0268 227.136 98.0268 227.433 98.0268C227.731 98.0138 227.918 98.0074 227.996 98.0074C228.319 98.0074 228.481 98.1756 228.481 98.5119V110.136C228.481 110.615 228.565 110.957 228.733 111.164C228.902 111.359 229.219 111.456 229.684 111.456C229.878 111.456 229.975 111.559 229.975 111.766C229.975 111.986 229.878 112.096 229.684 112.096C229.594 112.096 229.406 112.089 229.122 112.077C228.85 112.064 228.552 112.057 228.229 112.057C227.918 112.044 227.647 112.038 227.414 112.038C227.194 112.038 226.922 112.044 226.599 112.057C226.275 112.057 225.971 112.064 225.687 112.077C225.415 112.089 225.234 112.096 225.143 112.096ZM231.568 112.096C231.361 112.096 231.257 111.986 231.257 111.766C231.257 111.559 231.361 111.456 231.568 111.456C232.059 111.456 232.389 111.359 232.557 111.164C232.726 110.97 232.81 110.641 232.81 110.175V99.7345C232.81 99.3722 232.764 99.1394 232.674 99.0359C232.583 98.9194 232.447 98.8418 232.266 98.803C232.176 98.7771 232.034 98.7577 231.839 98.7448C231.645 98.7189 231.503 98.6995 231.413 98.6866C231.231 98.6607 231.141 98.5572 231.141 98.3761C231.141 98.182 231.238 98.0721 231.432 98.0462C231.471 98.0462 231.632 98.0462 231.917 98.0462C232.202 98.0333 232.519 98.0268 232.868 98.0268C233.23 98.0268 233.56 98.0268 233.858 98.0268C234.155 98.0138 234.343 98.0074 234.42 98.0074C234.744 98.0074 234.906 98.1756 234.906 98.5119V110.136C234.906 110.615 234.99 110.957 235.158 111.164C235.326 111.359 235.643 111.456 236.109 111.456C236.303 111.456 236.4 111.559 236.4 111.766C236.4 111.986 236.303 112.096 236.109 112.096C236.018 112.096 235.831 112.089 235.546 112.077C235.274 112.064 234.977 112.057 234.653 112.057C234.343 112.044 234.071 112.038 233.838 112.038C233.618 112.038 233.347 112.044 233.023 112.057C232.7 112.057 232.396 112.064 232.111 112.077C231.839 112.089 231.658 112.096 231.568 112.096ZM242.32 112.329C241.854 112.329 241.382 112.258 240.903 112.115C240.424 111.986 240.023 111.857 239.7 111.727C239.545 111.663 239.402 111.637 239.273 111.65C239.156 111.663 239.047 111.701 238.943 111.766C238.865 111.818 238.794 111.876 238.73 111.941C238.678 111.992 238.62 112.051 238.555 112.115C238.426 112.245 238.29 112.284 238.147 112.232C238.018 112.18 237.953 112.064 237.953 111.882V109.185C237.953 109.017 238.024 108.92 238.167 108.894C238.322 108.868 238.438 108.92 238.516 109.049C239.486 110.641 240.767 111.436 242.358 111.436C242.979 111.436 243.503 111.307 243.93 111.048C244.37 110.789 244.59 110.408 244.59 109.903C244.59 109.567 244.435 109.308 244.124 109.127C243.814 108.946 243.413 108.803 242.921 108.7C242.43 108.584 241.912 108.461 241.369 108.331C240.825 108.202 240.308 108.027 239.816 107.807C239.325 107.587 238.924 107.283 238.613 106.895C238.303 106.494 238.147 105.964 238.147 105.304C238.147 104.864 238.264 104.444 238.497 104.043C238.742 103.642 239.111 103.318 239.603 103.072C240.094 102.814 240.715 102.684 241.466 102.684C241.893 102.684 242.313 102.736 242.727 102.839C243.154 102.93 243.523 103.04 243.833 103.169C244.195 103.312 244.454 103.318 244.609 103.189C244.674 103.137 244.739 103.085 244.804 103.033C244.881 102.969 244.952 102.911 245.017 102.859C245.133 102.781 245.237 102.755 245.328 102.781C245.431 102.794 245.483 102.885 245.483 103.053V105.479C245.483 105.647 245.405 105.75 245.25 105.789C245.095 105.815 244.985 105.763 244.92 105.634C244.597 104.871 244.137 104.321 243.542 103.984C242.947 103.648 242.352 103.48 241.757 103.48C241.084 103.48 240.573 103.629 240.224 103.926C239.874 104.211 239.7 104.541 239.7 104.916C239.7 105.226 239.855 105.466 240.166 105.634C240.476 105.789 240.871 105.918 241.349 106.022C241.841 106.113 242.358 106.216 242.902 106.332C243.445 106.436 243.956 106.598 244.435 106.818C244.926 107.038 245.328 107.354 245.638 107.768C245.948 108.17 246.104 108.713 246.104 109.399C246.104 109.942 245.948 110.44 245.638 110.893C245.328 111.333 244.888 111.682 244.318 111.941C243.749 112.199 243.083 112.329 242.32 112.329Z" fill="#0F6935"/>
<path d="M252.683 53.5818V44.3269H256.645C257.054 44.3269 257.427 44.4138 257.766 44.5876C258.105 44.7528 258.401 44.9787 258.653 45.2655C258.905 45.5435 259.1 45.8607 259.239 46.217C259.378 46.5646 259.448 46.9209 259.448 47.2859C259.448 47.7117 259.365 48.1158 259.2 48.4981C259.044 48.8805 258.818 49.2064 258.522 49.4758C258.236 49.7452 257.897 49.932 257.506 50.0363L259.748 53.5818H258.418L256.306 50.2579H253.856V53.5818H252.683ZM253.856 49.2151H256.658C256.98 49.2151 257.258 49.1282 257.493 48.9544C257.736 48.7719 257.923 48.5329 258.053 48.2374C258.192 47.942 258.262 47.6248 258.262 47.2859C258.262 46.9383 258.183 46.6211 258.027 46.3343C257.871 46.0389 257.666 45.8042 257.414 45.6304C257.162 45.4566 256.884 45.3697 256.58 45.3697H253.856V49.2151Z" fill="black"/>
<circle cx="255.941" cy="49.3438" r="8.72892" stroke="black" stroke-width="0.977625"/>
</svg>
